# xmcd
#
# Track frame offsets: 
#        150
#        20042
#        37345
#        62947
#        88642
#        116925
#        137587
#        176692
#        194947
#        209490
#
# Disc length: 3186 seconds
#
# Revision: 4
# Processed by: cddbd v1.5.2PL0 Copyright (c) Steve Scherf et al.
# Submitted via: ExactAudioCopy v1.0b4
#
DISCID=a50c700a
DTITLE=Buddy Guy and Junior Wells - Last Time Around-Live At Legends
DYEAR=1998
DGENRE=Blues
TTITLE0=Seeds Of Reed
TTITLE1=That's All Right
TTITLE2=She's All Right - Still A Fool
TTITLE3=Hoochie Coochie Man
TTITLE4=What I'd Say (It's All Right)
TTITLE5=Key To The Highway
TTITLE6=I've Been There
TTITLE7=Feelin' Good - What I'd Say
TTITLE8=Oh Baby - You Better Watch Yourself
TTITLE9=Hoodoo Man Blues
EXTD=YEAR: 1998  ID3G:   0
EXTT0=
EXTT1=
EXTT2=
EXTT3=
EXTT4=
EXTT5=
EXTT6=
EXTT7=
EXTT8=
EXTT9=
PLAYORDER=
